<svg t="1723626244145" class="icon" viewBox="0 0 1024 1024" version="1.1" xmlns="http://www.w3.org/2000/svg" p-id="2626">
    <path
        d="M232.14 600.1s-37.33-20.53-36.37-41.86c0 0-106.21-28.11-58.54-152.8 0 0-138.88-139.89 30.59-247.25 0 0 171.38-199.41 384.74-44.92 0 0 224-9.39 171.13 166.04L319.38 612.68l-87.24-12.58z"
        fill="#203462" p-id="2627"></path>
    <path
        d="M885.38 467.88s106.66 117.62 11.16 220.06c0 0-76.5 80.34-197.35 50.18-120.86-30.17 186.19-270.24 186.19-270.24z"
        fill="#E84A56" p-id="2628"></path>
    <path
        d="M881.93 471.32c40.06 44.39 63.98 114.12 39.23 171.16-25.19 58.06-89.9 91.72-150.7 96.8-24.01 2-49.13 0.2-72.33-6.5-7.2-2.08-14.69-5.5-18.88-12.03-8.83-13.75 0.62-33.13 7.45-45.58 12.49-22.76 29.55-42.98 46.92-62.14 19.98-22.04 41.3-42.84 63.16-63 18.99-17.51 38.44-34.53 58.23-51.13 10.52-8.83 22.36-16.87 32.27-26.37 0.47-0.45 1.04-0.82 1.55-1.22 4.94-3.86-2.01-10.72-6.89-6.89-29.31 22.93-57.58 47.3-85.09 72.35-23.46 21.36-46.35 43.41-67.79 66.81-18.62 20.33-37.06 41.88-50.47 66.11-8.35 15.09-17.31 35.34-9.6 52.46 3.37 7.5 9.73 12.96 17.06 16.46 17.71 8.47 39.92 10.29 59.24 11 62.11 2.28 131.61-23.94 168.95-75.57 46.85-64.78 25.2-147.66-21.96-205.54-1.12-1.38-2.26-2.76-3.45-4.08-4.22-4.66-11.1 2.25-6.9 6.9z"
        fill="#231815" p-id="2629"></path>
    <path d="M796.31 650.5l1.19 46.88" fill="#4076BA" p-id="2630"></path>
    <path
        d="M791.43 650.5c0.35 13.66 0.69 27.32 1.04 40.99l0.15 5.9c0.16 6.26 9.91 6.29 9.75 0-0.35-13.66-0.69-27.32-1.04-40.99l-0.15-5.9c-0.16-6.26-9.91-6.29-9.75 0z"
        fill="#231815" p-id="2631"></path>
    <path d="M867.38 619.71l-40.24-24.09" fill="#4076BA" p-id="2632"></path>
    <path
        d="M869.84 615.51c-11.75-7.04-23.5-14.07-35.25-21.11-1.66-1-3.32-1.99-4.99-2.99-5.4-3.23-10.3 5.19-4.92 8.42 11.75 7.04 23.5 14.07 35.25 21.11 1.66 1 3.32 1.99 4.99 2.99 5.39 3.22 10.3-5.2 4.92-8.42z"
        fill="#231815" p-id="2633"></path>
    <path
        d="M535.21 751.02c-3.08 12.28-11.28 24.32-22.69 30.09-10.37 5.24-22.44 3.5-33.64 3.24-11.87-0.28-11.44-18.7 0.44-18.42 6.67 0.16 14.21 1.38 20.75 0.07 9.39-1.89 15.22-11.3 17.42-20.06 2.91-11.55 20.61-6.4 17.72 5.08z"
        fill="#F3D860" p-id="2634"></path>
    <path
        d="M528.95 746.7c-2.88 11.48-10.46 22.87-21.19 28.23-9.85 4.92-21.5 3.13-32.11 2.87-7.91-0.19-7.63-12.47 0.29-12.28 6.89 0.16 14.36 1.23 21.15 0.03 10.67-1.89 17.56-12.3 20.06-22.24 1.92-7.7 13.72-4.27 11.8 3.39z"
        fill="#EAA642" p-id="2635"></path>
    <path
        d="M519.22 703.17s-3.78 5.16-10.11 11.79c-4.4 4.61-4.25 11.93 0.15 16.54l33.95 35.6c5.69 5.97 15.69 3.86 18.47-3.91l1.63-13.79-44.09-46.23z"
        fill="#883B2A" p-id="2636"></path>
    <path
        d="M450.05 764.23c-7.2 6.86 5.78 14.92 18.37 28.12 12.59 13.2 20.01 26.55 27.21 19.68 7.2-6.86 2.83-23.13-9.75-36.33s-28.63-18.34-35.83-11.47z"
        fill="#372622" p-id="2637"></path>
    <path
        d="M563.3 749.43s-23.27-29.99-55.6-19.94c0 0 1.72 2.19 5.67 6.34l30.35 31.8s9.67 8.71 17.12-2.63c0.02-0.02 0.03-0.05 0.04-0.08l2.42-15.49z"
        fill="#632318" p-id="2638"></path>
    <path
        d="M389.43 602.48c-12.27 3.14-24.27 11.38-29.99 22.82-5.2 10.4-3.41 22.45-3.09 33.65 0.33 11.87 18.75 11.36 18.42-0.52-0.19-6.67-1.45-14.2-0.16-20.75 1.85-9.39 11.23-15.27 19.99-17.51 11.53-2.95 6.3-20.63-5.17-17.69z"
        fill="#F3D860" p-id="2639"></path>
    <path
        d="M393.78 608.73c-11.47 2.93-22.82 10.56-28.14 21.32-4.88 9.87-3.03 21.51-2.73 32.12 0.22 7.91 12.5 7.57 12.28-0.35-0.19-6.89-1.29-14.35-0.12-21.15 1.84-10.68 12.23-17.61 22.16-20.15 7.68-1.97 4.2-13.75-3.45-11.79z"
        fill="#EAA642" p-id="2640"></path>
    <path
        d="M437.35 618.26s-5.14 3.81-11.74 10.16c-4.59 4.42-11.91 4.3-16.54-0.08l-35.75-33.79c-6-5.67-3.92-15.67 3.83-18.49l13.78-1.69 46.42 43.89z"
        fill="#883B2A" p-id="2641"></path>
    <path
        d="M390.91 574.39S421 597.53 411.1 629.9c0 0-2.2-1.71-6.37-5.64l-31.93-30.22s-8.75-9.63 2.56-17.13c0.02-0.02 0.05-0.03 0.08-0.04l15.47-2.48z"
        fill="#632318" p-id="2642"></path>
    <path
        d="M410.38 443.45l236.76-250.46c3.17-3.36 8.41-3.56 11.69-0.45l226.53 214.14c39.39 37.23 40.49 100.02 2.46 140.25L712.33 732.57"
        fill="#E0BA19" p-id="2643"></path>
    <path
        d="M437.49 452.26l211.25-223.48c2.65-2.81 7.08-2.93 9.89-0.28l193.55 182.96c33.65 31.81 35.14 84.88 3.33 118.53l-160 169.26"
        fill="#F3D860" p-id="2644"></path>
    <path
        d="M868.25 364.12c-13.12 4.2-62.29-23.73-25.67-69.39 2.28-2.84 2.46-6.85 0.48-10-3.13-4.98-9.42-10.46-18.82-13.83-3-1.08-8.43-5.56-9.94-8.37-5.8-10.72-20.87-34.22-60.02-12.09-0.51 0.29-0.99 0.61-1.45 0.97-6.43 5.1-52.71 44.8-8.73 100.08 0 0 78.04 92.75 126.53 18.98 1.52-2.32 0.28-7.21-2.38-6.35z"
        fill="#E6B049" p-id="2645"></path>
    <path
        d="M865.85 357.01c-0.45-10.99-4.1-36.65-27.95-44.92-2.15-0.74-4.42 0.56-4.83 2.76-1.79 9.66-3.08 34.64 27.89 45.68 2.44 0.88 4.99-0.95 4.89-3.52zM764.98 304.09s-10.71 23.02 9.12 50.22M790.32 258.7s-20.73 6.93-28.34 34.83M747.68 285.73s-9.46 13.09-4.28 37.17"
        fill="#E6B049" p-id="2646"></path>
    <path
        d="M870.59 355.57c-13.01 4.29-61.34-22.83-24.65-68.42 2.28-2.84 2.5-6.81 0.58-9.9-3.04-4.89-9.21-10.25-18.46-13.49-2.95-1.03-8.27-5.42-9.74-8.18-5.62-10.55-20.28-33.66-59.22-11.33-0.51 0.29-0.99 0.61-1.44 0.98-6.42 5.12-52.6 44.91-9.69 99.17 0 0 76.19 91 124.91 17.46 1.53-2.33 0.36-7.16-2.29-6.29z"
        fill="#CF7D2C" p-id="2647"></path>
    <path
        d="M877.72 355.59c-13.01 4.29-61.34-22.83-24.65-68.42 2.28-2.84 2.5-6.81 0.58-9.9-3.04-4.89-9.21-10.25-18.46-13.49-2.95-1.03-8.27-5.42-9.74-8.18-5.62-10.55-20.28-33.66-59.22-11.33-0.51 0.29-0.99 0.61-1.44 0.98-6.42 5.12-52.6 44.91-9.69 99.17 0 0 76.19 91 124.91 17.46 1.52-2.33 0.35-7.16-2.29-6.29z"
        fill="#F3D860" p-id="2648"></path>
    <path
        d="M871.8 350.68c-0.33-10.87-3.67-36.25-27.17-44.18a3.7 3.7 0 0 0-4.81 2.79c-1.87 9.58-3.41 34.33 27.1 44.93 2.41 0.84 4.95-0.99 4.88-3.54z"
        fill="#CF7D2C" p-id="2649"></path>
    <path
        d="M863.74 348.04c-0.23-7.84-2.64-26.13-19.59-31.85-1.53-0.52-3.16 0.43-3.47 2.01-1.35 6.91-2.46 24.75 19.54 32.4 1.74 0.6 3.58-0.72 3.52-2.56z"
        fill="#E7A441" p-id="2650"></path>
    <path
        d="M811.33 239.36c-10.78 0.67-20.41 4.67-28.22 10.99-3.86 3.24-7.27 7.03-10.38 11.17-1.57 2.05-2.88 4.31-4.43 6.46-1.35 2.26-2.63 4.58-4.18 6.85 0.52-2.65 1.23-5.27 2-7.9 1.08-2.48 1.98-5.11 3.37-7.48 2.64-4.85 6.23-9.22 10.49-12.9 4.42-3.49 9.52-6.19 14.98-7.47 5.43-1.32 11.18-1.42 16.37 0.28zM841.99 266.81c-10.22 0.03-18.71 0.47-26.62 3.09-3.9 1.32-7.81 2.81-11.56 5.13-2.01 0.95-3.79 2.34-5.84 3.53-2.02 1.25-3.85 2.77-6.24 4.03 0.59-2.49 1.48-4.93 2.64-7.25 1.4-2.12 2.63-4.53 4.57-6.32 3.49-3.98 8.35-6.83 13.49-8.5a31.365 31.365 0 0 1 15.89-0.83c5.13 1.15 10.03 3.34 13.67 7.12z"
        fill="#BF7C2F" p-id="2651"></path>
    <path
        d="M832.81 262.58c-8.12-0.21-15.72 0.44-22.44 3.4-3.36 1.41-6.51 3.34-9.31 5.84-2.94 2.39-5.34 5.4-8.13 8.46 0.95-3.95 2.61-7.89 5.37-11.12 2.56-3.4 6.21-5.96 10.14-7.7 3.97-1.67 8.28-2.45 12.49-2.2 4.18 0.23 8.32 1.23 11.88 3.32zM880.07 360.33c1.49 3.51-0.06 7.57-1.53 10.87-1.57 3.44-3.76 6.46-5.98 9.43a62.824 62.824 0 0 1-3.59 4.19c-1.19 1.32-2.5 2.77-4.07 4.11-3.01 2.7-6.61 4.79-10.47 6.3-3.87 1.48-8.07 2.34-12.33 2.36-4.38 0.07-8.37-0.75-12.24-1.81-7.81-2.21-14.92-6.48-20.85-11.72-5.87-5.36-10.6-11.52-14.33-18.25l-1.4-2.57c-0.63-1.25-0.85-1.88-1.25-2.82-0.73-1.73-1.36-3.48-1.96-5.23-1.23-3.49-2.23-7.06-3.06-10.67-1.66-7.22-2.45-14.75-1.88-22.29 0.68-7.42 3.17-15.35 8.7-20.21-2.71 6.72-2.67 13.45-1.47 19.98 1.07 6.54 3.29 12.89 5.73 19.11 1.25 3.11 2.6 6.18 4.03 9.2l2.22 4.46c0.34 0.65 0.83 1.63 1.05 1.93l1.31 1.96c3.49 5.35 7.6 10.32 12.14 14.44 4.58 4.09 9.7 7.36 15.31 9.46 5.81 2.18 11.06 2.97 16.91 1.74 2.86-0.55 5.66-1.63 8.35-3.04 2.57-1.33 5.52-3.68 8.19-5.61 2.73-2.02 5.29-4.24 7.64-6.65 1.21-1.2 2.22-2.51 3.15-3.92 0.89-1.4 1.72-2.96 1.68-4.75z"
        fill="#EAA642" p-id="2652"></path>
    <path
        d="M845.92 297.6c-1.03 5.71-1.94 10.96-2.36 16.04-0.44 5.06-0.31 9.87 0.69 14.3 0.96 4.43 2.81 8.59 5.87 12.41 1.28 2.11 3.23 3.78 4.95 5.81 1.83 1.94 3.98 3.59 5.95 5.87-2.85-0.29-5.75-0.85-8.54-1.8-2.61-1.29-5.55-2.3-7.82-4.42-4.97-3.61-8.7-9.48-9.99-15.73-1.4-6.25-0.65-12.64 1.4-18.21 2.12-5.53 5.26-10.59 9.85-14.27zM828.47 281.11c-3.85 7.39-6.66 15.15-8.76 22.96-1.98 7.85-2.96 15.89-2.36 23.81 0.06 4 1.07 7.85 1.86 11.74 1.32 3.74 2.4 7.6 4.4 11.11 3.39 7.33 8.66 13.63 14.03 20.03-1.65-1.25-3.29-2.55-4.9-3.9-1.57-1.38-3.39-2.55-4.72-4.2-2.78-3.17-5.76-6.27-7.77-10.08-2.52-3.52-3.83-7.66-5.5-11.64-1.02-4.19-2.13-8.39-2.3-12.72-0.55-8.61 0.76-17.26 3.61-25.26 2.82-8 6.98-15.5 12.41-21.85z"
        fill="#FFFFFF" p-id="2653"></path>
    <path
        d="M879.74 356.2c1.56 1.11 1.81 3.43 1.65 5.31-0.21 1.97-0.89 3.76-1.62 5.53-1.58 3.46-3.75 6.53-6.01 9.43-2.36 2.79-4.7 5.58-7.82 8.16-3.06 2.49-6.59 4.64-10.53 6.04a32.195 32.195 0 0 1-12.57 1.95c-4.46-0.2-8.06-1.13-11.99-2.32-7.64-2.5-14.58-6.86-20.28-12.22-5.75-5.39-10.26-11.57-13.93-18.27-2.14-3.72-3.22-7-4.48-10.54-1.2-3.48-2.19-7.03-2.99-10.64-1.59-7.2-2.29-14.73-1.53-22.23 0.89-7.39 3.69-15.17 9.39-19.74-3 6.55-3.22 13.23-2.22 19.7 0.9 6.49 3.02 12.79 5.4 18.96 1.2 3.09 2.56 6.12 3.95 9.12 1.46 2.88 2.89 6.18 4.51 8.35 3.46 5.3 7.43 10.38 11.94 14.5 4.47 4.2 9.51 7.56 15.03 9.8 2.64 1.13 5.85 2.04 8.35 2.48 2.63 0.43 5.37 0.38 8.15-0.15 5.64-1.06 10.97-4.06 16.48-8.27 2.78-1.92 5.36-4.04 7.65-6.4 1.11-1.18 2.22-2.44 2.93-3.86 0.73-1.37 1.31-3.04 0.54-4.69z"
        fill="#BF7C2F" p-id="2654"></path>
    <path d="M814.82 382.94s-67.86-51.11-53.84-80.53c0 0-22.76 22 7.1 51.53 0 0 29.82 30.29 56.59 35.92l-9.85-6.92z"
        fill="#EAA642" p-id="2655"></path>
    <path
        d="M760.98 302.4c-0.03 6.15 2.01 11.29 4.22 16.31 2.28 4.98 4.97 9.76 7.94 14.5 2.97 4.73 6.11 9.45 9.29 14.3 3.14 4.89 6.46 9.73 9.22 15.38-5.62-2.69-10.58-6.26-15.1-10.37-4.47-4.14-8.47-8.86-11.76-14.14-3.29-5.26-5.81-11.19-6.98-17.5-0.66-3.12-0.61-6.45-0.35-9.63 0.55-3.17 1.37-6.44 3.52-8.85z"
        fill="#BF7C2F" p-id="2656"></path>
    <path
        d="M793.95 234.56c-1.77 0.11-3.49 0.59-5.07 1.4-6.35 3.24-23.86 14.3-24.23 37.67 0 0 7.55-20.26 19.06-28.17 0 0 12.67-9.37 27.63-6.11-0.01 0.01-7.81-5.36-17.39-4.79z"
        fill="#EAA642" p-id="2657"></path>
    <path
        d="M793.07 307.82c1.28 8.6 3.24 17 5.64 25.17 2.53 8.12 5.56 16.09 9.93 23.22 4.22 7.2 9.8 13.54 16.7 18.16 6.91 4.63 15.12 7.3 23.74 8.5-8.64 0.72-17.83-0.73-25.73-5.23-3.97-2.16-7.54-5.02-10.76-8.19-3.14-3.26-5.82-6.9-8.17-10.72-4.6-7.71-7.58-16.19-9.42-24.79-1.83-8.61-2.54-17.42-1.93-26.12zM757.04 301.99c-9.84 13.25-9.64 31.17 0.6 44.01 1.07 1.34 5.08 1.89 5.44 2.35-10.18-12.76-10.26-30.55-0.51-43.69 0.21-0.27-4.9-3.51-5.53-2.67zM819.81 248.08c-16.89 0.66-30.7 11.68-34.73 28.07-0.32 1.32 2.98 2.82 3.24 1.75 3.83-15.61 16.86-26.81 33.16-27.45 2.08-0.07-0.49-2.41-1.67-2.37zM769.46 241.07c-11.42 6.78-16.71 20.03-13.25 32.75 1.04 3.82 6.94 2.09 5.9-1.72-2.76-10.1 1.5-20.4 10.53-25.77 3.41-2.02 0.22-7.27-3.18-5.26z"
        fill="#FFFFFF" p-id="2658"></path>
    <path
        d="M854.24 356.7c-3.02-1.13-7.79-4.02-12.56-11.42-1.39-2.15-3.93-3.24-6.42-2.71-5.37 1.15-12.9 6.32 2.49 20.83 1.12 1.06 2.56 1.62 3.8 2.5 6.83 4.85 19.56 6.34 18.49-2.04-0.43-3.24-2.74-6.01-5.8-7.16z"
        fill="#FFFFFF" p-id="2659"></path>
    <path
        d="M535.911101 424.643541a29.78 11.76 43.387 1 0 16.156421-17.092703 29.78 11.76 43.387 1 0-16.156421 17.092703Z"
        fill="#E84A56" p-id="2660"></path>
    <path
        d="M538.084712 422.345872a19.13 7.55 43.387 1 0 10.372531-10.973631 19.13 7.55 43.387 1 0-10.372531 10.973631Z"
        fill="#E95866" p-id="2661"></path>
    <path
        d="M718.368709 598.551987a29.78 11.76 43.387 1 0 16.15642-17.092703 29.78 11.76 43.387 1 0-16.15642 17.092703Z"
        fill="#E84A56" p-id="2662"></path>
    <path
        d="M721.260653 595.492451a19.13 7.55 43.387 1 0 10.372532-10.973631 19.13 7.55 43.387 1 0-10.372532 10.973631Z"
        fill="#E95866" p-id="2663"></path>
    <path d="M642.96 278.08l-20.21 21.38c-5.43 5.74 2.18 12.96 7.62 7.2l20.21-21.38c5.44-5.74-2.18-12.95-7.62-7.2z"
        fill="#FFFFFF" p-id="2664"></path>
    <path d="M612.573358 317.48493a2.33 3.96 43.387 1 0 5.440427-5.755705 2.33 3.96 43.387 1 0-5.440427 5.755705Z"
        fill="#FFFFFF" p-id="2665"></path>
    <path
        d="M611.28 318.86c-1.75-1.66-1.34-4.74 0.95-7.16s5.35-3.01 7.1-1.35c1.75 1.66 1.34 4.74-0.95 7.17-2.3 2.41-5.35 2.99-7.1 1.34z m5.28-5.59c-0.37 0.11-0.96 0.4-1.57 1.05-0.61 0.64-0.87 1.25-0.96 1.63 0.37-0.11 0.96-0.4 1.57-1.05 0.61-0.65 0.88-1.26 0.96-1.63z"
        fill="#FFFFFF" p-id="2666"></path>
    <path
        d="M828.46 475.73c-5.65 5.65-9.6 13.35-12.44 20.7-2.46 6.37 7 11.51 9.5 5.05 2.51-6.5 5.75-13.36 10.75-18.36 4.9-4.9-2.92-12.29-7.81-7.39z"
        fill="#FFFFFF" p-id="2667"></path>
    <path d="M815.673184 518.068233a2.62 3.55 13.391 1 0 1.644325-6.906967 2.62 3.55 13.391 1 0-1.644325 6.906967Z"
        fill="#FFFFFF" p-id="2668"></path>
    <path
        d="M634.38 805.99L339.61 527.36a6.22 6.22 0 0 1-0.25-8.78l77.86-82.37 303.79 287.17-77.86 82.37a6.198 6.198 0 0 1-8.77 0.24z"
        fill="#FFFFFF" p-id="2669"></path>
    <path
        d="M500.38 449.69l1.85-18.69c0.02-0.19 0.19-0.33 0.38-0.31l4.69 0.46c0.19 0.02 0.33 0.19 0.31 0.38l-1.85 18.69c-0.02 0.19-0.19 0.33-0.38 0.31l-4.69-0.46a0.353 0.353 0 0 1-0.31-0.38zM511.29 460l1.85-18.69c0.02-0.19 0.19-0.33 0.38-0.31l4.69 0.46c0.19 0.02 0.33 0.19 0.31 0.38l-1.85 18.69c-0.02 0.19-0.19 0.33-0.38 0.31l-4.69-0.46a0.347 0.347 0 0 1-0.31-0.38z"
        fill="#FFFFFF" p-id="2670"></path>
    <path
        d="M690.49 629.28l1.85-18.69c0.02-0.19 0.19-0.33 0.38-0.31l4.69 0.46c0.19 0.02 0.33 0.19 0.31 0.38l-1.85 18.69c-0.02 0.19-0.19 0.33-0.38 0.31l-4.69-0.46a0.347 0.347 0 0 1-0.31-0.38zM701.39 639.59l1.85-18.69c0.02-0.19 0.19-0.33 0.38-0.31l4.69 0.46c0.19 0.02 0.33 0.19 0.31 0.38l-1.85 18.69c-0.02 0.19-0.19 0.33-0.38 0.31l-4.69-0.46a0.362 0.362 0 0 1-0.31-0.38z"
        fill="#FFFFFF" p-id="2671"></path>
    <path d="M411.655 442.102l303.79 287.152-15.422 16.314-303.79-287.151z" fill="#E2D2C3" p-id="2672"></path>
    <path
        d="M550.67 592.71l-21.01 22.23a2.998 2.998 0 0 1-4.23 0.12l-9.57-9.05c0.63-2.72-0.15-5.69-2.32-7.74a8.118 8.118 0 0 0-11.47 0.32 8.118 8.118 0 0 0 0.32 11.47 8.111 8.111 0 0 0 7.15 2.06l15.44 14.6a4.178 4.178 0 0 0 5.92-0.17l26.23-27.74-6.46-6.1zM471.99 655.25L493 633.03a2.998 2.998 0 0 1 4.23-0.12l9.57 9.05c-0.63 2.72 0.15 5.69 2.32 7.74 3.26 3.08 8.39 2.93 11.47-0.32s2.93-8.39-0.32-11.47a8.111 8.111 0 0 0-7.15-2.06l-15.44-14.6a4.178 4.178 0 0 0-5.92 0.17l-26.23 27.74 6.46 6.09z"
        fill="#372622" p-id="2673"></path>
    <path
        d="M893.62 473.38c3.36 9.78 3.35 22.36-3.78 32.63-4.48 6.45 4.83 10.72 9.29 4.29 8.76-12.61 9.63-29.03 5.47-41.14-2.16-6.28-13.16-2.12-10.98 4.22z"
        fill="#FBEFD2" p-id="2674"></path>
    <path d="M812.446601 601.710229a2.17 5.78 53.794 1 0 9.327746-6.828379 2.17 5.78 53.794 1 0-9.327746 6.828379Z"
        fill="#FBEFD2" p-id="2675"></path>
    <path d="M814.670102 609.468293a3.01 8.03 53.794 1 0 12.95879-9.486484 3.01 8.03 53.794 1 0-12.95879 9.486484Z"
        fill="#FBEFD2" p-id="2676"></path>
    <path d="M417.384 436.044l303.79 287.152-15.421 16.314-303.79-287.152z" fill="#4076BA" p-id="2677"></path>
    <path
        d="M600.03 681.63c-0.93 0.99-1.97 1.73-3.11 2.22-1.14 0.5-2.31 0.74-3.53 0.73a8.284 8.284 0 0 1-3.24-0.68c-1.02-0.44-1.95-1.07-2.82-1.89-0.85-0.8-1.53-1.69-2.03-2.66-0.5-0.97-0.8-2-0.89-3.07-0.1-1.21 0.06-2.42 0.49-3.62 0.43-1.21 1.13-2.32 2.1-3.35 0.9-0.95 1.88-1.67 2.93-2.17 1.05-0.49 2.19-0.75 3.42-0.78a8.13 8.13 0 0 1 3.31 0.61c1.08 0.44 2.08 1.09 3 1.97 0.9 0.85 1.61 1.79 2.11 2.81a8.315 8.315 0 0 1 0.28 6.76c-0.45 1.13-1.13 2.17-2.02 3.12z m-3.24-2.87c0.59-0.62 1.07-1.34 1.43-2.15 0.37-0.81 0.53-1.62 0.47-2.42-0.03-0.52-0.15-1.01-0.36-1.49s-0.53-0.92-0.96-1.33c-0.42-0.4-0.89-0.7-1.39-0.88s-1.04-0.28-1.62-0.27c-0.74 0.02-1.49 0.22-2.25 0.59-0.76 0.38-1.42 0.87-2 1.48-0.63 0.67-1.11 1.38-1.42 2.14s-0.45 1.52-0.41 2.29a4.29 4.29 0 0 0 1.33 2.86 4.177 4.177 0 0 0 2.95 1.15c0.71 0 1.44-0.18 2.2-0.52 0.77-0.34 1.44-0.82 2.03-1.45zM619.79 688.6c-1.09 1.15-1.95 2.05-2.58 2.71-0.64 0.66-1.22 1.26-1.74 1.82-0.66 0.7-1.23 1.31-1.71 1.82s-0.89 0.95-1.23 1.31c-0.8 0.84-1.63 1.43-2.49 1.78-0.86 0.34-1.73 0.48-2.6 0.41-0.99-0.08-1.9-0.33-2.76-0.74-0.85-0.41-1.72-1.03-2.59-1.85-0.97-0.92-1.68-1.81-2.12-2.67-0.44-0.86-0.7-1.72-0.79-2.59-0.11-0.91-0.01-1.79 0.3-2.65 0.31-0.86 0.86-1.71 1.66-2.55 0.34-0.36 0.76-0.8 1.24-1.3 0.48-0.51 1.06-1.11 1.72-1.81l1.73-1.85c0.57-0.62 1.41-1.52 2.5-2.67l3.06 2.89c-0.5 0.52-1.12 1.16-1.87 1.94-0.74 0.78-1.58 1.65-2.5 2.63l-1.33 1.42c-0.44 0.48-0.9 0.96-1.37 1.46-0.85 0.9-1.25 1.81-1.19 2.73 0.05 0.93 0.49 1.78 1.32 2.56 0.88 0.83 1.76 1.24 2.64 1.22 0.88-0.02 1.76-0.48 2.64-1.41 0.47-0.5 0.94-0.99 1.41-1.49s0.91-0.95 1.31-1.38c0.94-0.99 1.77-1.88 2.5-2.68 0.73-0.79 1.34-1.44 1.81-1.94l3.03 2.88zM623.12 715.16l-3.06-2.89c0.33-0.35 0.9-0.94 1.69-1.76 0.8-0.83 1.85-1.93 3.17-3.32l-1.32-1.26c-0.67-0.64-1.22-1.16-1.65-1.57-0.47-0.44-1-0.94-1.6-1.5-0.6-0.56-0.98-0.92-1.15-1.08-1.22 1.29-2.23 2.36-3.02 3.21-0.79 0.85-1.39 1.49-1.79 1.93l-3.06-2.89c0.43-0.44 1.06-1.1 1.92-1.99a536.284 536.284 0 0 0 6.83-7.23c0.93-1.01 1.91-2.05 2.92-3.14l3.06 2.89c-0.84 0.89-1.62 1.71-2.35 2.46-0.73 0.76-1.45 1.5-2.14 2.24 0.17 0.16 0.52 0.49 1.04 0.99s1.09 1.04 1.7 1.62c0.52 0.49 1.1 1.03 1.74 1.63 0.64 0.6 1.05 0.99 1.24 1.17 0.67-0.71 1.38-1.46 2.12-2.27 0.74-0.8 1.52-1.63 2.32-2.49l3.06 2.89c-0.99 1.03-2.05 2.13-3.17 3.3s-2.03 2.13-2.73 2.87c-1.48 1.56-2.71 2.88-3.7 3.94-0.97 1.06-1.67 1.81-2.07 2.25zM635.53 726.88l-1.83-1.74c-1-0.95-1.99-1.9-2.98-2.84-0.86-0.81-1.7-1.59-2.51-2.35-0.82-0.76-1.41-1.32-1.78-1.67 0.31-0.32 0.99-1.02 2.04-2.11 1.04-1.08 2.36-2.46 3.94-4.14 0.67-0.71 1.52-1.62 2.55-2.72 1.03-1.1 2.08-2.23 3.14-3.38 0.42 0.4 1.01 0.96 1.78 1.7l2.33 2.21c1.06 1.01 2.11 1.99 3.13 2.96 1.02 0.96 1.6 1.51 1.74 1.63l-2.15 2.28c-0.1-0.1-0.51-0.48-1.2-1.15-0.7-0.67-1.4-1.34-2.11-2.01-0.41-0.39-0.89-0.84-1.44-1.36-0.55-0.51-0.98-0.92-1.3-1.22-0.44 0.46-0.9 0.95-1.39 1.45-0.49 0.51-0.93 0.97-1.32 1.38 0.32 0.3 0.73 0.69 1.22 1.16s0.9 0.86 1.22 1.16c0.79 0.75 1.54 1.45 2.24 2.1 0.7 0.65 1.14 1.06 1.34 1.24l-1.74 1.84c-0.12-0.12-0.6-0.57-1.42-1.36-0.82-0.79-1.52-1.45-2.08-1.98-0.31-0.3-0.73-0.68-1.24-1.16-0.51-0.48-0.93-0.87-1.26-1.18-0.68 0.72-1.26 1.34-1.74 1.85-0.48 0.52-0.88 0.94-1.18 1.27 0.36 0.35 0.85 0.82 1.47 1.41 0.61 0.59 1.17 1.11 1.67 1.59 0.7 0.66 1.34 1.26 1.92 1.8 0.58 0.54 0.95 0.88 1.13 1.05l-2.19 2.29z"
        fill="#EBD262" p-id="2678"></path>
    <path d="M601.53 673.29m-3.2 0a3.2 3.2 0 1 0 6.4 0 3.2 3.2 0 1 0-6.4 0Z" fill="#FFFFFF" p-id="2679"></path>
    <path d="M601.53 673.29m-2.07 0a2.07 2.07 0 1 0 4.14 0 2.07 2.07 0 1 0-4.14 0Z" fill="#4ABAB0" p-id="2680"></path>
    <path
        d="M652.87 729.63l-19.97 19.04c-2.86 2.73 1.37 7.18 4.24 4.45l19.97-19.04c2.86-2.73-1.38-7.18-4.24-4.45zM620.28 760.71c-6.71 6.4-13.43 12.8-20.14 19.21-2.86 2.73 1.37 7.18 4.24 4.45 6.71-6.4 13.43-12.8 20.14-19.21 2.86-2.73-1.37-7.18-4.24-4.45z"
        fill="#E2D2C3" p-id="2681"></path>
    <path
        d="M405.06 482.1c-6.32 6.68-12.63 13.37-18.95 20.05-2.72 2.87 1.74 7.1 4.46 4.22 6.32-6.68 12.63-13.37 18.95-20.05 2.72-2.88-1.74-7.1-4.46-4.22zM374.13 514.82c-6.37 6.74-12.75 13.48-19.12 20.23-2.72 2.87 1.74 7.1 4.46 4.22 6.37-6.74 12.75-13.48 19.12-20.23 2.71-2.87-1.74-7.1-4.46-4.22z"
        fill="#E2D2C3" p-id="2682"></path>
    <path
        d="M586.69 452.75c15.35-16.23 36.97 6.4 65 32.89 28.03 26.49 51.84 46.81 36.49 63.05-15.35 16.23-54.77 12.43-82.79-14.06-28.03-26.5-34.04-65.65-18.7-81.88z"
        fill="#6C3121" p-id="2683"></path>
    <path
        d="M580.07 491.21s20.01-12.47 49.28 18.05l-23.97 25.36c0.01 0-17.58-14.36-25.31-43.41zM650.15 557.45s11.33-20.68-20.79-48.19l-23.97 25.36s15.32 16.75 44.76 22.83z"
        fill="#E95866" p-id="2684"></path>
    <path
        d="M596.8 506.08c1.22-0.08 38.59 40.03 22.2 10.69-1.29-2.31 1.4-5.11 3.73-3.87 9.96 5.33 25.67 17.4 26.57 40.71 0.06 1.65-1.44 3.04-3.08 2.9-6.83-0.57-24.11-4.57-43.87-28.67 0 0.01-18.64-20.91-5.55-21.76z"
        fill="#EE858F" p-id="2685"></path>
    <path d="M614.84662 418.989401a19.72 8.33 43.387 1 0 11.444131-12.10733 19.72 8.33 43.387 1 0-11.444131 12.10733Z"
        fill="#E6B049" p-id="2686"></path>
    <path d="M720.112233 518.50043a19.72 8.33 43.387 1 0 11.444131-12.107331 19.72 8.33 43.387 1 0-11.444131 12.107331Z"
        fill="#E6B049" p-id="2687"></path>
    <path
        d="M629.22 372.32c-1.95 2.61-3.38 5.6-4.61 8.59-2.21 5.37-3.29 11.77-1.31 17.38 2.81 7.95 10.26 13.37 18.6 14.09 8.1 0.7 15.56-4.05 21.19-9.38 1.86-1.76 1.9-5.15 0-6.89-1.99-1.83-4.91-1.87-6.89 0-0.79 0.75-1.6 1.46-2.43 2.16-0.06 0.05-0.73 0.58-0.2 0.17-0.38 0.29-0.77 0.57-1.16 0.84-1.3 0.89-2.66 1.65-4.08 2.33-1.16 0.56 0.94-0.29-0.24 0.09-0.23 0.07-0.46 0.17-0.69 0.24-0.6 0.2-1.21 0.37-1.83 0.51-0.27 0.06-0.54 0.1-0.8 0.16-1.11 0.24 1.15-0.07 0.05 0-0.6 0.04-1.19 0.08-1.79 0.08-0.47-0.01-0.94-0.06-1.41-0.08-0.97-0.04 0.99 0.21 0.36 0.05-0.21-0.05-0.43-0.08-0.65-0.12-0.41-0.09-0.83-0.19-1.23-0.31-0.29-0.09-1.86-0.7-1-0.32 0.89 0.39-0.43-0.21-0.64-0.32-0.31-0.16-0.62-0.33-0.92-0.51-0.59-0.35-1.12-0.83-1.71-1.16 1.39 0.75 0.66 0.52 0.25 0.16-0.19-0.16-0.37-0.33-0.55-0.49-0.27-0.25-0.52-0.5-0.77-0.77l-0.22-0.25c-0.27-0.29-0.53-0.59-0.78-0.9 0.66 0.82 0.12 0.14-0.02-0.09-0.37-0.62-0.68-1.29-1.06-1.91-0.36-0.59 0.34 1.09 0.03 0.02-0.1-0.33-0.22-0.66-0.31-0.99-0.1-0.37-0.49-1.34-0.35-1.67-0.22 0.54 0.07 0.86 0.04 0.12-0.01-0.28-0.04-0.56-0.04-0.84-0.02-0.67 0-1.34 0.06-2.01l0.03-0.33c0.06-0.54 0.04-0.44-0.05 0.3-0.04-0.07 0.08-0.54 0.1-0.66 0.11-0.65 0.25-1.29 0.42-1.93 0.29-1.13 0.66-2.25 1.08-3.34 0.09-0.24 0.19-0.47 0.28-0.71 0.14-0.35 0.08-0.19-0.2 0.48 0.08-0.18 0.16-0.36 0.24-0.53 0.23-0.51 0.47-1.01 0.73-1.51 0.43-0.85 0.89-1.68 1.39-2.5 0.48-0.8 0.98-1.59 1.54-2.34 1.53-2.05 0.4-5.53-1.75-6.67-2.58-1.33-5.06-0.42-6.7 1.76zM734.82 472.15c-1.95 2.61-3.38 5.6-4.61 8.59-2.21 5.37-3.29 11.77-1.31 17.38 2.81 7.95 10.26 13.37 18.6 14.09 8.1 0.7 15.56-4.05 21.19-9.38 1.86-1.76 1.9-5.15 0-6.89-1.99-1.83-4.91-1.87-6.89 0-0.79 0.75-1.6 1.46-2.43 2.16-0.06 0.05-0.73 0.58-0.2 0.17-0.38 0.29-0.77 0.57-1.16 0.84-1.3 0.89-2.66 1.65-4.08 2.33-1.16 0.56 0.94-0.29-0.24 0.09-0.23 0.07-0.46 0.17-0.69 0.24-0.6 0.2-1.21 0.37-1.83 0.51-0.27 0.06-0.54 0.1-0.8 0.16-1.11 0.24 1.15-0.07 0.05 0-0.6 0.04-1.19 0.08-1.79 0.08-0.47-0.01-0.94-0.06-1.41-0.08-0.97-0.04 0.99 0.21 0.36 0.05-0.21-0.05-0.43-0.08-0.65-0.12-0.41-0.09-0.83-0.19-1.23-0.31-0.29-0.09-1.86-0.7-1-0.32 0.89 0.39-0.43-0.21-0.64-0.32-0.31-0.16-0.62-0.33-0.92-0.51-0.59-0.35-1.12-0.83-1.71-1.16 1.39 0.75 0.66 0.52 0.25 0.16-0.19-0.16-0.37-0.33-0.55-0.49-0.27-0.25-0.52-0.5-0.77-0.77l-0.22-0.25c-0.27-0.29-0.53-0.59-0.78-0.9 0.66 0.82 0.12 0.14-0.02-0.09-0.37-0.62-0.68-1.29-1.06-1.91-0.36-0.59 0.34 1.09 0.03 0.02-0.1-0.33-0.22-0.66-0.31-0.99-0.1-0.37-0.49-1.34-0.35-1.67-0.22 0.54 0.07 0.86 0.04 0.12-0.01-0.28-0.04-0.56-0.04-0.84-0.02-0.67 0-1.34 0.06-2.01l0.03-0.33c0.06-0.54 0.04-0.44-0.05 0.3-0.04-0.07 0.08-0.54 0.1-0.66 0.11-0.65 0.25-1.29 0.42-1.93 0.29-1.13 0.66-2.25 1.08-3.34 0.09-0.24 0.19-0.47 0.28-0.71 0.14-0.35 0.08-0.19-0.2 0.48 0.08-0.18 0.16-0.36 0.24-0.53 0.23-0.51 0.47-1.01 0.73-1.51 0.43-0.85 0.89-1.68 1.39-2.5 0.48-0.8 0.98-1.59 1.54-2.34 1.53-2.05 0.4-5.53-1.75-6.67-2.58-1.34-5.06-0.43-6.7 1.76z"
        fill="#040000" p-id="2688"></path>
    <path
        d="M376.6 687.69c-6.83 7.23-14.94-5.72-28.2-18.24s-26.63-19.9-19.8-27.12c6.83-7.23 23.12-2.93 36.37 9.59s18.46 28.54 11.63 35.77z"
        fill="#372622" p-id="2689"></path>
    <path
        d="M617.76 439.06c-9.88-10.97-28.74-35.18-29.82-61.22-0.46-4.98-0.92-9.94-1.38-14.93-4.32-25.58-20.95-89.55-78.63-83.47l-4.19 0.87c-13.65 4.2-82.4 30.43-31.85 120.29 0 0 58.61 104.66 145.43 48.96 3.24-2.06 3.48-7.13 0.44-10.5z"
        fill="#203462" p-id="2690"></path>
    <path
        d="M601.15 435.2c-7.85-9.98-22.56-31.67-22.2-53.73l-0.78-18.46c-3.16-24.51-15.42-73.22-62.97-72.34-1.2 0.14-2.41 0.28-3.61 0.41-12.01 2.52-74.27 19.72-35.7 100.44 0 0 44.59 93.78 124.18 52.62 2.98-1.53 3.52-5.84 1.08-8.94z"
        fill="#3F6FAE" p-id="2691"></path>
    <path
        d="M510.03 323.72s3.2-2.89 10.15-3.24c6.57-0.34 13.1 2.71 16.28 8.47 0.21 0.38 0.41 0.78 0.61 1.19 1.19 2.55 3.15 4.72 5.62 6.06 2.22 1.2 4.98 1.82 7.74 0.24 0 0 8.02-3.09 3.66-12.92 0 0-12.17-20.83-33.05-20.14 0 0-7.91-0.47-16.15 5.46-3.71 2.67-4.68 8.07-2.2 11.91l0.48 0.74c0.01 0 3.42 3.9 6.86 2.23z"
        fill="#BED1E5" p-id="2692"></path>
    <path
        d="M166.86 633.3s36.13-134.88 217.03-190.07c0 0 131.44-26.06 233.13 77.74 0 0 226.11 159.95 39.19 262.43L417 956.75s-40.98 30.09-81.25-27.97l-202-247.89c-1.73-2.12-2.6-4.9-2.39-7.73 1.08-14.69 20.25-46.21 45.34-81.37"
        fill="#4076BA" p-id="2693"></path>
    <path
        d="M171.56 634.6c10.04-37.16 36.3-71.97 62.81-98.78 30.12-30.46 66.49-54.16 105.66-71.3 15.09-6.6 31.6-14.18 47.92-17.06 8.54-1.51 17.39-1.9 26.03-2.15 36.4-1.05 73 4.98 107.03 17.99 24.15 9.23 46.96 22.24 67.23 38.28 10.14 8.03 18.73 17.9 29.05 25.6 38.05 28.42 75.03 64.84 95.76 108.03 12.87 26.81 17.44 57.8 3.87 85.3-8.47 17.17-22.28 31.15-37.52 42.46-9.15 6.79-19.34 11.84-28.61 18.38-41.34 29.16-81.96 59.4-122.93 89.09-37.52 27.19-74.41 55.66-112.74 81.7-22.66 15.4-49.09 4.49-66.04-14.27-10.21-11.3-19.4-24.21-29.03-36.04-38.14-46.81-76.29-93.62-114.43-140.43-16.91-20.75-33.82-41.51-50.74-62.26l-14.27-17.51c-5.09-6.25-4.44-11.28-1.3-19.2 9.68-24.51 26.47-46.86 41.62-68.16 3.64-5.12-4.81-10-8.42-4.92-15.52 21.83-32.17 44.52-42.23 69.54-3.95 9.83-5.38 18.49 1.42 27.16 11.28 14.38 23.11 28.36 34.66 42.53l123.96 152.13c12.92 15.86 25.84 31.71 38.76 47.57 18.2 22.33 38.83 45.86 70.77 40.33 12.49-2.16 21.09-8.7 30.95-15.85 20.72-15.01 41.43-30.03 62.15-45.04 50.05-36.27 100.09-72.54 150.14-108.8 17.97-13.02 37.93-23.43 54.49-38.24 24.74-22.13 40.42-52.49 37.01-86.21-5.8-57.47-52.41-106.19-94.59-141.59-5.81-4.87-11.83-9.44-17.79-14.11-11.83-9.28-22.05-20.5-34.21-29.58-37.03-27.65-81.03-44.82-126.73-51.03-24.74-3.36-51.17-4.55-75.9-0.1-16.22 2.92-32.48 10.39-47.56 16.88-22.63 9.74-44.38 21.57-64.6 35.67-46.93 32.71-87.9 78.62-108.14 132.78-1.06 2.84-2.11 5.7-2.9 8.63-1.65 6.05 7.75 8.63 9.39 2.58z"
        fill="#231815" p-id="2694"></path>
    <path
        d="M451.580017 463.28401a21.22 18.37 43.387 1 0 25.237538-26.700081 21.22 18.37 43.387 1 0-25.237538 26.700081Z"
        fill="#372622" p-id="2695"></path>
    <path
        d="M487.72 468.26c-2.75 7.33-13.25 10.33-19.67 3.87-6.25-6.29-10.23-14.2-6.36-20.89 3.86-6.69 13.76-9.28 20.36-3.35 7.26 6.51 8.47 12.9 5.67 20.37z"
        fill="#372622" p-id="2696"></path>
    <path d="M356.18 842.75s141.16 25.98 275.74-107.17" fill="#4076BA" p-id="2697"></path>
    <path
        d="M354.88 847.45c18.85 3.42 38.87 2.73 57.82 0.97 46.84-4.35 92.36-19.14 133.47-41.88 32.78-18.14 62.48-41.3 89.19-67.51 4.48-4.4-2.41-11.29-6.89-6.89-66.79 65.54-157.42 111.66-252.81 107.57-6.24-0.27-13.07-0.72-18.18-1.65-6.14-1.12-8.77 8.27-2.6 9.39z"
        fill="#231815" p-id="2698"></path>
    <path
        d="M683.282438 650.630818a29.69 25.7 52.561 1 0 40.811652-31.246905 29.69 25.7 52.561 1 0-40.811652 31.246905Z"
        fill="#372622" p-id="2699"></path>
    <path
        d="M681.62 599.63c-10.59 2.77-16.3 16.94-8.24 26.8 7.85 9.61 18.27 16.29 28.15 11.88 9.88-4.41 14.9-17.8 7.62-27.84-8.03-11.04-16.74-13.66-27.53-10.84z"
        fill="#372622" p-id="2700"></path>
    <path
        d="M318.231918 541.959212a21.42 18.53 35.944 1 0 21.754007-30.003446 21.42 18.53 35.944 1 0-21.754007 30.003446Z"
        fill="#FFFFFF" p-id="2701"></path>
    <path
        d="M336.400647 541.542719a21.42 18.53 35.944 1 0 21.754007-30.003446 21.42 18.53 35.944 1 0-21.754007 30.003446Z"
        fill="#FFFFFF" p-id="2702"></path>
    <path
        d="M341.366615 558.726816a21.42 18.53 35.944 1 0 21.754007-30.003446 21.42 18.53 35.944 1 0-21.754007 30.003446Z"
        fill="#FFFFFF" p-id="2703"></path>
    <path
        d="M352.659903 706.721261a21.42 18.53 35.944 1 0 21.754007-30.003446 21.42 18.53 35.944 1 0-21.754007 30.003446Z"
        fill="#FFFFFF" p-id="2704"></path>
    <path
        d="M370.828631 706.304768a21.42 18.53 35.944 1 0 21.754007-30.003446 21.42 18.53 35.944 1 0-21.754007 30.003446Z"
        fill="#FFFFFF" p-id="2705"></path>
    <path
        d="M375.802282 723.493925a21.42 18.53 35.944 1 0 21.754007-30.003446 21.42 18.53 35.944 1 0-21.754007 30.003446Z"
        fill="#FFFFFF" p-id="2706"></path>
    <path
        d="M505.362147 551.691504a24.25 20.98 35.944 1 0 24.630279-33.970442 24.25 20.98 35.944 1 0-24.630279 33.970442Z"
        fill="#FFFFFF" p-id="2707"></path>
    <path
        d="M525.918909 551.223156a24.25 20.98 35.944 1 0 24.630278-33.970442 24.25 20.98 35.944 1 0-24.630278 33.970442Z"
        fill="#FFFFFF" p-id="2708"></path>
    <path
        d="M531.554146 570.677423a24.25 20.98 35.944 1 0 24.630279-33.970442 24.25 20.98 35.944 1 0-24.630279 33.970442Z"
        fill="#FFFFFF" p-id="2709"></path>
    <path
        d="M192.093983 710.48326a21.42 18.53 35.944 1 0 21.754007-30.003446 21.42 18.53 35.944 1 0-21.754007 30.003446Z"
        fill="#FFFFFF" p-id="2710"></path>
    <path
        d="M210.262712 710.066767a21.42 18.53 35.944 1 0 21.754007-30.003446 21.42 18.53 35.944 1 0-21.754007 30.003446Z"
        fill="#FFFFFF" p-id="2711"></path>
    <path
        d="M215.227854 727.249245a21.42 18.53 35.944 1 0 21.754007-30.003446 21.42 18.53 35.944 1 0-21.754007 30.003446Z"
        fill="#FFFFFF" p-id="2712"></path>
    <path
        d="M501.739132 736.636147a21.38 18.5 35.944 1 0 21.718787-29.954871 21.38 18.5 35.944 1 0-21.718787 29.954871Z"
        fill="#FFFFFF" p-id="2713"></path>
    <path d="M519.868702 736.223305a21.38 18.5 35.944 1 0 21.718788-29.95487 21.38 18.5 35.944 1 0-21.718788 29.95487Z"
        fill="#FFFFFF" p-id="2714"></path>
    <path
        d="M524.835608 753.382843a21.38 18.5 35.944 1 0 21.718788-29.954871 21.38 18.5 35.944 1 0-21.718788 29.954871Z"
        fill="#FFFFFF" p-id="2715"></path>
    <path
        d="M223.4 355.68l-9.21-5.02c-0.99-0.54-2.19-0.56-3.2-0.05l-9.36 4.74c-2.54 1.29-5.45-0.9-4.93-3.7l1.93-10.31c0.21-1.11-0.14-2.25-0.94-3.05l-7.4-7.43c-2.01-2.02-0.83-5.46 1.99-5.83l10.4-1.35c1.12-0.15 2.1-0.83 2.61-1.84l4.78-9.33c1.3-2.53 4.94-2.48 6.16 0.09l4.5 9.47a3.43 3.43 0 0 0 2.56 1.92l10.36 1.67c2.81 0.45 3.88 3.93 1.81 5.89l-7.62 7.21a3.43 3.43 0 0 0-1.03 3.03l1.62 10.36c0.45 2.79-2.53 4.89-5.03 3.53z"
        fill="#F3D860" p-id="2716"></path>
    <path
        d="M225.05 360c-1.2 0-2.41-0.3-3.52-0.9l-9.21-5.02-8.93 4.75a7.293 7.293 0 0 1-7.72-0.68 7.28 7.28 0 0 1-2.8-7.22l1.92-10.31-7.27-7.02a7.284 7.284 0 0 1-1.74-7.54 7.29 7.29 0 0 1 5.99-4.9l10.4-1.35 4.43-9.09c1.28-2.5 3.72-4.1 6.64-3.99 2.81 0.04 5.31 1.65 6.51 4.19l4.5 9.47 10.01 1.41c2.78 0.45 5.02 2.4 5.85 5.09 0.83 2.68 0.07 5.56-1.97 7.48l-7.62 7.21 1.76 9.95c0.43 2.78-0.72 5.51-3.02 7.13a7.283 7.283 0 0 1-4.21 1.34z m0.21-7.75z m-12.71-5.91c1.21 0 2.41 0.3 3.5 0.89l8.66 4.73-1.75-9.59c-0.37-2.38 0.45-4.79 2.2-6.45l6.95-6.56-9.42-1.52a7.312 7.312 0 0 1-5.46-4.1l-4.1-8.62-4.36 8.49a7.314 7.314 0 0 1-5.58 3.93l-9.47 1.23 6.74 6.77a7.305 7.305 0 0 1 2.01 6.53l-1.75 9.38 8.51-4.31c1.05-0.54 2.19-0.8 3.32-0.8z"
        fill="#E7A441" p-id="2717"></path>
    <path
        d="M334.32 382.21l-9.21-5.02c-0.99-0.54-2.19-0.56-3.2-0.05l-9.36 4.74c-2.54 1.29-5.45-0.9-4.93-3.7l1.93-10.31a3.44 3.44 0 0 0-0.94-3.06l-7.4-7.43c-2.01-2.02-0.83-5.46 1.99-5.83l10.4-1.35c1.12-0.15 2.1-0.83 2.61-1.84l4.78-9.33c1.3-2.53 4.94-2.48 6.16 0.09l4.5 9.47a3.43 3.43 0 0 0 2.56 1.92l10.36 1.67c2.81 0.45 3.88 3.93 1.81 5.89l-7.62 7.21a3.43 3.43 0 0 0-1.03 3.03l1.62 10.36c0.45 2.81-2.53 4.9-5.03 3.54z"
        fill="#F3D860" p-id="2718"></path>
    <path
        d="M335.97 386.54c-1.2 0-2.41-0.3-3.51-0.9l-9.21-5.02-8.93 4.74c-2.51 1.27-5.46 1.02-7.71-0.67a7.287 7.287 0 0 1-2.81-7.22l1.92-10.3-7.27-7.03a7.284 7.284 0 0 1-1.74-7.54c0.91-2.66 3.2-4.54 5.99-4.9l10.41-1.35 4.43-9.09c1.28-2.5 3.77-4.01 6.64-3.99 2.81 0.04 5.31 1.65 6.51 4.19l4.5 9.47 10.01 1.41a7.31 7.31 0 0 1 5.85 5.08c0.83 2.68 0.07 5.56-1.97 7.49l-7.62 7.21 1.76 9.95a7.3 7.3 0 0 1-3.03 7.13 7.434 7.434 0 0 1-4.22 1.34z m0.21-7.75z m-12.71-5.92c1.21 0 2.41 0.3 3.51 0.89l8.67 4.73-1.75-9.59c-0.37-2.38 0.45-4.8 2.21-6.46l6.93-6.56-9.42-1.52c-2.39-0.39-4.44-1.92-5.46-4.1l-4.09-8.62-4.36 8.49a7.298 7.298 0 0 1-5.58 3.93l-9.47 1.23 6.74 6.77c1.7 1.7 2.46 4.14 2.01 6.53l-1.75 9.38 8.51-4.31c1.02-0.53 2.16-0.79 3.3-0.79z"
        fill="#E7A441" p-id="2719"></path>
    <path
        d="M262.08 241.77s127.05 43.77 170.44-84.87c0 0 39.27 46.41 2.35 110.72-16.4 28.57-48.69 44.01-81.23 38.94-31.78-4.96-70.73-20.58-91.56-64.79z"
        fill="#F3D860" p-id="2720"></path>
    <path
        d="M260.79 246.47c45.31 15.5 101.63 8.23 137.36-24.61 18.69-17.18 30.89-39.89 39.08-63.66-2.72 0.72-5.43 1.43-8.15 2.15 18.79 22.47 20.52 59.76 9.89 87.53-9.71 25.37-28.15 45.88-55.15 52.58-20.77 5.16-43.49 0.25-62.84-8.1-24.5-10.57-43.1-29.13-54.7-53.05-2.74-5.64-11.15-0.71-8.42 4.92 20.88 43.05 71.19 74.21 119.94 67.28 55.23-7.84 86.87-69.19 75.32-121-2.91-13.06-8.49-26.68-17.17-37.05-2.52-3.02-7.06-1.01-8.15 2.15-12.79 37.13-37.25 69.55-75.63 82.14-23.56 7.73-49.31 8-73.51 3.2-5.14-1.02-10.34-2.18-15.31-3.88-5.92-2.03-8.47 7.38-2.56 9.4z"
        fill="#E7A441" p-id="2721"></path>
    <path d="M414.8 225.22s-6.09 19.6 15.23 13.61" fill="#F3D860" p-id="2722"></path>
    <path
        d="M422.87 247.77c-5.07 0-9.15-1.56-12.18-4.69-7.07-7.26-3.74-18.87-3.33-20.17l14.9 4.63-7.45-2.32 7.46 2.26c-0.48 1.63-0.62 3.97-0.3 4.81 0.14-0.14 1.88 0.18 5.96-0.96l4.21 15.02c-3.39 0.95-6.48 1.42-9.27 1.42z"
        fill="#E7A441" p-id="2723"></path>
</svg>